<?xml version="1.0" encoding="utf-8"?>
<!-- Generator: Adobe Illustrator 19.0.0, SVG Export Plug-In . SVG Version: 6.00 Build 0)  -->
<svg version="1.1" id="Layer_1" xmlns="http://www.w3.org/2000/svg" xmlns:xlink="http://www.w3.org/1999/xlink" x="0px" y="0px"
	 viewBox="-1063 937 256 256" style="enable-background:new -1063 937 256 256;" xml:space="preserve">
<style type="text/css">
	.st0{fill:none;}
</style>
<g>
	<path class="st0" d="M-935,965.4c-54.9,0-99.5,44.6-99.5,99.5s44.6,99.5,99.5,99.5c54.3,0,98.9-44.6,99.5-99.5
		C-835.5,1010-880.1,965.4-935,965.4z M-872.4,1048.6c-0.8,2.6-2.6,4.6-5.1,5.9l-56.7,27.1c-1.5,0.8-3.3,1.2-4.8,1.2
		c-1.4,0-2.9-0.4-4.6-1.2c-3.3-1.8-5.4-5.3-5.4-9v-67.9c0-6,5-9.6,9.8-9.6c2.5,0,4.6,0.8,6.4,2.3l0.1,0.1c1.8,1.8,2.8,4.4,2.8,7.2
		v51.9l43.9-19.6c5.6-2.8,10.3-0.2,12.6,3.6l0.1,0.1C-871.9,1043.2-871.6,1046.1-872.4,1048.6z"/>
	<path d="M-935,941.1c-68.4,0-124,55.5-124,123.8c0,68.4,55.6,124,124,124s124-55.6,124-124C-811.2,996.6-866.8,941.1-935,941.1z
		 M-935,1164.4c-54.9,0-99.5-44.6-99.5-99.5s44.6-99.5,99.5-99.5s99.5,44.6,99.5,99.5C-836.1,1119.8-880.7,1164.4-935,1164.4z"/>
	<path d="M-873.2,1040.7c-2.3-3.8-7.1-6.4-12.6-3.6l-43.9,19.6v-51.9c0-2.8-1-5.3-2.8-7.2l-0.1-0.1c-1.8-1.6-3.9-2.3-6.4-2.3
		c-4.8,0-9.8,3.6-9.8,9.6v67.9c0,3.7,2.1,7.2,5.4,9c1.7,0.8,3.2,1.2,4.6,1.2c1.5,0,3.2-0.5,4.8-1.2l56.7-27.1
		c2.5-1.3,4.3-3.4,5.1-5.9C-871.6,1046.1-871.9,1043.2-873.2,1040.7L-873.2,1040.7z"/>
</g>
</svg>
