<?xml version="1.0" encoding="utf-8"?>
<!-- Svg Vector Icons : http://www.onlinewebfonts.com/icon -->
<!DOCTYPE svg PUBLIC "-//W3C//DTD SVG 1.1//EN" "http://www.w3.org/Graphics/SVG/1.1/DTD/svg11.dtd">
<svg version="1.1" xmlns="http://www.w3.org/2000/svg" xmlns:xlink="http://www.w3.org/1999/xlink" x="0px" y="0px" viewBox="0 0 1000 1000" enable-background="new 0 0 1000 1000" xml:space="preserve">
<metadata> Svg Vector Icons : http://www.onlinewebfonts.com/icon </metadata>
<g><g><path d="M59,157h882c13.5,0,25.1,4.8,34.6,14.4S990,192.5,990,206c0,13.5-4.8,25.1-14.4,34.6c-9.6,9.6-21.1,14.4-34.6,14.4H59c-13.5,0-25.1-4.8-34.6-14.4C14.8,231.1,10,219.5,10,206c0-13.5,4.8-25.1,14.4-34.6S45.5,157,59,157z M59,745h882c13.5,0,25.1,4.8,34.6,14.4c9.6,9.6,14.4,21.1,14.4,34.6s-4.8,25.1-14.4,34.6c-9.6,9.6-21.1,14.4-34.6,14.4H59c-13.5,0-25.1-4.8-34.6-14.4C14.8,819.1,10,807.5,10,794s4.8-25.1,14.4-34.6C33.9,749.8,45.5,745,59,745z M59,451h882c13.5,0,25.1,4.8,34.6,14.4S990,486.5,990,500s-4.8,25.1-14.4,34.6c-9.6,9.6-21.1,14.4-34.6,14.4H59c-13.5,0-25.1-4.8-34.6-14.4C14.8,525.1,10,513.5,10,500s4.8-25.1,14.4-34.6S45.5,451,59,451z"/></g></g>
</svg>